<svg width="383" height="313" viewBox="0 0 383 313" fill="none" xmlns="http://www.w3.org/2000/svg">
<g clip-path="url(#clip0_180_607)">
<path d="M348.088 87.5569V219.056C348.088 225.761 342.018 230.905 335.371 229.749L284.91 221.194" stroke="#D3E8E9" stroke-width="4" stroke-miterlimit="10" stroke-linecap="round"/>
<path d="M176.763 236.339L250.807 223.565" stroke="#D3E8E9" stroke-width="4" stroke-miterlimit="10" stroke-linecap="round"/>
<path d="M297.164 13.1082C316.759 13.1082 332.654 29.0038 332.654 48.5986C332.654 68.1934 297.164 102.354 297.164 102.354" stroke="#D3E8E9" stroke-width="4" stroke-miterlimit="10" stroke-linecap="round"/>
<path d="M345.718 48.6565C345.718 75.4765 297.106 122.296 297.106 122.296C297.106 122.296 248.495 75.4765 248.495 48.6565C248.495 21.8365 270.229 0.0453796 297.106 0.0453796C323.984 0.0453796 345.718 21.7787 345.718 48.6565Z" stroke="#083146" stroke-width="4" stroke-linecap="round" stroke-linejoin="round"/>
<path d="M297.164 65.997C306.741 65.997 314.505 58.2334 314.505 48.6565C314.505 39.0796 306.741 31.3159 297.164 31.3159C287.587 31.3159 279.824 39.0796 279.824 48.6565C279.824 58.2334 287.587 65.997 297.164 65.997Z" stroke="#083146" stroke-width="4" stroke-linecap="round" stroke-linejoin="round"/>
<path d="M383 76.4591V52.3559L345.718 45.8821" stroke="#083146" stroke-width="4" stroke-linecap="round" stroke-linejoin="round"/>
<path d="M250.287 35.8822L162.024 51.084L47.981 31.4317V254.951L162.024 274.604L268.957 256.165L383 275.817V141.081" stroke="#083146" stroke-width="4" stroke-linecap="round" stroke-linejoin="round"/>
<path d="M340.747 66.5173L361.844 70.1585V250.673L268.957 234.662L162.024 253.101L69.1365 237.09V56.5753L162.024 72.5864L249.998 57.4424" stroke="#083146" stroke-width="4" stroke-linecap="round" stroke-linejoin="round"/>
<path d="M211.849 72.5864V85.0714" stroke="#083146" stroke-width="4" stroke-linecap="round" stroke-linejoin="round"/>
<path d="M211.849 107.267V229.576" stroke="#083146" stroke-width="4" stroke-linecap="round" stroke-linejoin="round"/>
<path d="M211.849 240.674V253.101" stroke="#083146" stroke-width="4" stroke-linecap="round" stroke-linejoin="round"/>
<path d="M268.957 90.6205V103.048" stroke="#083146" stroke-width="4" stroke-linecap="round" stroke-linejoin="round"/>
<path d="M268.957 126.92V210.27" stroke="#083146" stroke-width="4" stroke-linecap="round" stroke-linejoin="round"/>
<path d="M268.957 222.235V234.662" stroke="#083146" stroke-width="4" stroke-linecap="round" stroke-linejoin="round"/>
<path d="M118.961 150.272C118.961 150.272 134.452 147.382 154.567 158.885C164.509 164.607 168.729 170.156 170.289 176.051C171.85 181.947 170.694 188.479 170.116 195.762C168.96 210.155 204.624 214.894 196.589 250.5" stroke="#083146" stroke-width="4" stroke-linecap="round" stroke-linejoin="round"/>
<path d="M284.968 147.382C324.1 140.446 346.585 157.15 361.844 184.202" stroke="#083146" stroke-width="4" stroke-linecap="round" stroke-linejoin="round"/>
<path d="M198.323 66.3438C198.323 66.3438 186.531 98.3659 209.537 122.296C214.392 127.325 218.785 131.66 223.062 135.301C232.946 143.625 242.252 148.307 255.026 149.521" stroke="#083146" stroke-width="4" stroke-linecap="round" stroke-linejoin="round"/>
<g filter="url(#filter0_f_180_607)">
<ellipse cx="233.5" cy="52" rx="144.5" ry="39" fill="#FF7A00" fill-opacity="0.5"/>
</g>
<g filter="url(#filter1_f_180_607)">
<ellipse cx="61" cy="250.5" rx="86" ry="62.5" fill="#D3E8E9"/>
</g>
</g>
<defs>
<filter id="filter0_f_180_607" x="-96" y="-172" width="659" height="448" filterUnits="userSpaceOnUse" color-interpolation-filters="sRGB">
<feFlood flood-opacity="0" result="BackgroundImageFix"/>
<feBlend mode="normal" in="SourceGraphic" in2="BackgroundImageFix" result="shape"/>
<feGaussianBlur stdDeviation="92.5" result="effect1_foregroundBlur_180_607"/>
</filter>
<filter id="filter1_f_180_607" x="-210" y="3" width="542" height="495" filterUnits="userSpaceOnUse" color-interpolation-filters="sRGB">
<feFlood flood-opacity="0" result="BackgroundImageFix"/>
<feBlend mode="normal" in="SourceGraphic" in2="BackgroundImageFix" result="shape"/>
<feGaussianBlur stdDeviation="92.5" result="effect1_foregroundBlur_180_607"/>
</filter>
<clipPath id="clip0_180_607">
<rect width="408" height="312.955" fill="white" transform="translate(-25 0.0453796)"/>
</clipPath>
</defs>
</svg>
